<svg width="23" height="23" viewBox="0 0 23 23" fill="none" xmlns="http://www.w3.org/2000/svg">
<rect width="23" height="23" fill="#F5F5F5"/>
<g id="8" clip-path="url(#clip0_2_52)">
<rect width="375" height="812" transform="translate(-22 -343)" fill="white"/>
<g id="Group 18139">
<g id="Group 18130">
<g id="Iconly/Bulk/Location">
<g id="Location">
<path id="Path_34175" fill-rule="evenodd" clip-rule="evenodd" d="M8.1761 2.81449C10.2699 1.59789 12.8436 1.61915 14.9177 2.87019C16.9715 4.14671 18.2198 6.42492 18.2081 8.87563C18.1603 11.3103 16.8219 13.5988 15.1488 15.368C14.1831 16.3937 13.1029 17.3007 11.9301 18.0705C11.8093 18.1403 11.677 18.187 11.5397 18.2084C11.4076 18.2028 11.2789 18.1637 11.1653 18.0948C9.37478 16.9382 7.80399 15.4619 6.52844 13.7368C5.46111 12.2968 4.85472 10.5571 4.79163 8.7539C4.79024 6.29848 6.08228 4.03109 8.1761 2.81449ZM9.38607 9.76999C9.73828 10.6383 10.5696 11.2047 11.4919 11.2047C12.0962 11.209 12.677 10.967 13.105 10.5325C13.533 10.0981 13.7727 9.50727 13.7705 8.89178C13.7737 7.95228 13.2206 7.10346 12.3695 6.74165C11.5183 6.37984 10.5369 6.57641 9.88359 7.23958C9.23027 7.90274 9.03386 8.90169 9.38607 9.76999Z" fill="#9796A1"/>
</g>
</g>
</g>
</g>
</g>
<defs>
<clipPath id="clip0_2_52">
<rect width="375" height="812" fill="white" transform="translate(-22 -343)"/>
</clipPath>
</defs>
</svg>
