<svg width="14" height="12" viewBox="0 0 14 12" fill="none" xmlns="http://www.w3.org/2000/svg">
<path d="M4.99508 5.99609C5.00121 5.32287 5.18206 4.66279 5.51993 4.08047C5.8578 3.49815 6.3411 3.01356 6.92251 2.67413C7.03823 2.58269 7.17567 2.52278 7.32143 2.50025C7.46718 2.47773 7.61628 2.49334 7.75421 2.54557C7.89214 2.5978 8.01417 2.68488 8.10844 2.79831C8.20271 2.91174 8.26601 3.04764 8.29213 3.19279C8.43443 3.61044 8.6066 4.01815 8.74463 4.43722C8.78143 4.56301 8.85082 4.67683 8.94578 4.76717C9.04075 4.85751 9.1579 4.92115 9.28538 4.95162C9.70801 5.07329 10.1306 5.19354 10.5511 5.32018C10.6064 5.33062 10.659 5.35198 10.7059 5.38302C10.7528 5.41405 10.793 5.45414 10.8242 5.50092C10.8554 5.5477 10.877 5.60023 10.8877 5.65545C10.8983 5.71067 10.8978 5.76746 10.8862 5.82249C10.8798 5.88188 10.8607 5.9392 10.8303 5.99057C10.7998 6.04195 10.7587 6.08619 10.7096 6.12031C10.6606 6.15443 10.6048 6.17765 10.546 6.18838C10.4873 6.19911 10.4269 6.19711 10.369 6.18252C9.94565 6.12346 9.52373 6.05729 9.10394 5.97618C8.78918 5.92901 8.4907 5.80562 8.23451 5.61676C7.97831 5.4279 7.77218 5.17929 7.63401 4.89256C7.56286 4.75026 7.47604 4.61438 7.38283 4.45216C7.05563 4.77099 6.83582 5.18379 6.75389 5.63324C6.70195 5.83958 6.75386 5.93775 6.95877 6.00818C7.56781 6.21665 8.17259 6.43936 8.77451 6.66846C8.8944 6.69727 9.00512 6.75582 9.09643 6.83869C9.18774 6.92156 9.25671 7.02609 9.29697 7.14263C9.33724 7.25917 9.34748 7.38398 9.32681 7.50554C9.30613 7.6271 9.25517 7.74149 9.17864 7.83817C8.87696 8.33621 8.55397 8.82144 8.23451 9.30882C8.00825 9.65389 8.00398 9.65104 8.23451 10.0011C8.24874 10.0224 8.27363 10.0445 8.27363 10.0658C8.27363 10.1804 8.30848 10.3313 8.25014 10.3996C8.20722 10.4419 8.15508 10.4737 8.0978 10.4924C8.04052 10.5112 7.97966 10.5164 7.92001 10.5077C7.61301 10.4207 7.31251 10.3123 7.0207 10.1832C6.96394 10.1647 6.91208 10.1337 6.86892 10.0924C6.82577 10.0512 6.79243 10.0007 6.77139 9.94486C6.75035 9.88899 6.74215 9.82909 6.74737 9.76961C6.7526 9.71014 6.77112 9.65261 6.80157 9.60125C7.02498 9.06383 7.24906 8.52642 7.4739 7.98901C7.49239 7.94418 7.50593 7.89793 7.52514 7.8467C7.04915 7.7044 6.58385 7.56637 6.12351 7.4198C5.92091 7.36356 5.72575 7.28331 5.54221 7.18074C5.3486 7.05494 5.19451 6.87698 5.0977 6.66737C5.00089 6.45776 4.96532 6.22505 4.99508 5.99609Z" fill="#F7A167"/>
<path d="M3.90118 6.64061C3.48638 6.64559 3.07086 6.63635 2.65606 6.64489C2.48415 6.64861 2.31302 6.66935 2.14519 6.70679C1.79242 6.78132 1.46716 6.95205 1.20545 7.20007C0.94374 7.44809 0.755804 7.76373 0.662448 8.112L0.513062 8.55953L0.42343 8.54885C0.291525 8.2416 0.242511 7.90512 0.28134 7.57302C0.320168 7.24091 0.445419 6.9248 0.644644 6.65627C0.244783 6.57018 0.0463098 6.38164 0.0391948 6.0572C0.0202216 5.21811 0.00744665 4.37878 0.000806019 3.53922C-0.00339611 3.46029 0.00886382 3.38135 0.0368498 3.30743C0.0648358 3.23351 0.107886 3.16622 0.163307 3.10986C0.218728 3.0535 0.285283 3.0093 0.358725 2.98008C0.432167 2.95086 0.51085 2.93725 0.58984 2.94013C1.46451 2.93207 2.33925 2.93207 3.21391 2.94013C3.38578 2.94006 3.55183 3.0022 3.68144 3.11507C3.81105 3.22794 3.89544 3.38391 3.91898 3.55416C4.07836 4.38329 4.23557 5.21336 4.39068 6.04439C4.41172 6.11734 4.41469 6.19431 4.39936 6.26867C4.38404 6.34302 4.35087 6.41253 4.3027 6.47121C4.25452 6.52988 4.19278 6.57597 4.12283 6.60548C4.05288 6.63499 3.97683 6.64705 3.90118 6.64061Z" fill="#F7A167"/>
<path d="M10.7331 7.43088C10.8647 7.36471 10.9181 7.30138 10.8619 7.1541C10.8218 7.03821 10.7914 6.91923 10.7708 6.79835C10.7324 6.6091 10.7964 6.4796 10.9387 6.44261C11.0945 6.40063 11.2183 6.48601 11.2703 6.6767C11.3172 6.84817 11.3592 7.02177 11.4076 7.21316C11.5806 7.20352 11.754 7.20352 11.927 7.21316C12.3552 7.26608 12.7569 7.44879 13.0782 7.73675C13.3995 8.02471 13.6249 8.40413 13.7242 8.82399C13.8227 9.24476 13.7906 9.68553 13.6322 10.0876C13.4738 10.4896 13.1967 10.8339 12.8377 11.0745C12.4786 11.3119 12.0554 11.4337 11.625 11.4237C11.1947 11.4136 10.7776 11.2722 10.43 11.0182C10.14 10.8036 9.90975 10.5183 9.7611 10.1896C9.61246 9.86081 9.55038 9.49952 9.58075 9.14001C9.61113 8.7805 9.73294 8.43473 9.93463 8.13558C10.1363 7.83643 10.4112 7.59384 10.7331 7.43088ZM10.4891 9.75746C10.5995 10.0532 10.8161 10.2972 11.0967 10.4419C11.3773 10.5866 11.7017 10.6216 12.0067 10.5401C12.3186 10.4535 12.5858 10.2515 12.7543 9.97512C12.9228 9.6987 12.9798 9.36856 12.9138 9.05166C12.8538 8.75694 12.6887 8.49409 12.4493 8.31202C12.2099 8.12995 11.9125 8.04108 11.6125 8.06197C11.6687 8.27969 11.7192 8.49385 11.7832 8.70231C11.7939 8.7386 11.8544 8.76351 11.8999 8.78628C11.9738 8.81807 12.0402 8.86516 12.0945 8.92446C12.1489 8.98376 12.1901 9.05391 12.2153 9.13028C12.2406 9.20665 12.2494 9.28752 12.2412 9.36754C12.2329 9.44756 12.2078 9.52492 12.1674 9.59453C12.1292 9.66104 12.0778 9.71914 12.0165 9.7653C11.9552 9.81146 11.8852 9.84475 11.8107 9.86316C11.7362 9.88157 11.6587 9.88473 11.583 9.87243C11.5072 9.86014 11.4347 9.83264 11.3699 9.79162C11.3029 9.74744 11.2459 9.68988 11.2023 9.62256C11.1588 9.55524 11.1296 9.47964 11.1167 9.4005C11.1038 9.32136 11.1074 9.24039 11.1274 9.16272C11.1473 9.08505 11.1831 9.01236 11.2326 8.94921C11.2692 8.88813 11.2831 8.81604 11.2717 8.74572C11.2368 8.55859 11.1827 8.37575 11.1294 8.17653C10.8446 8.31257 10.621 8.55021 10.5025 8.84275C10.384 9.1353 10.3792 9.46157 10.4891 9.75746Z" fill="#F7A167"/>
<path d="M3.12246 7.20745C3.39978 7.20385 3.67502 7.2556 3.9321 7.35968C4.18918 7.46376 4.42291 7.61808 4.61962 7.81359C4.81633 8.00911 4.97213 8.2419 5.07777 8.49834C5.18341 8.75478 5.2368 9.02972 5.23488 9.30707C5.23732 9.58427 5.1849 9.85922 5.08063 10.1161C4.97637 10.3729 4.82231 10.6066 4.62735 10.8037C4.43239 11.0008 4.20041 11.1573 3.94469 11.2644C3.68897 11.3714 3.41461 11.4268 3.1374 11.4273C2.86012 11.4277 2.58556 11.3733 2.32941 11.2671C2.07326 11.161 1.84057 11.0052 1.64483 10.8088C1.4491 10.6124 1.29414 10.3792 1.18886 10.1227C1.08357 9.86624 1.03008 9.59146 1.0314 9.31419C1.03007 8.75775 1.24945 8.22348 1.64145 7.82856C2.03344 7.43363 2.56602 7.21028 3.12246 7.20745ZM3.13809 10.5856C3.47393 10.5819 3.79491 10.4464 4.0318 10.2083C4.26869 9.97023 4.40254 9.64861 4.40457 9.31276C4.40215 8.9763 4.26738 8.65431 4.02946 8.41639C3.79154 8.17848 3.4696 8.04374 3.13314 8.04132C2.96677 8.04196 2.80215 8.07557 2.64885 8.14023C2.49555 8.20488 2.35662 8.2993 2.24004 8.418C2.12345 8.5367 2.03155 8.67733 1.96966 8.83177C1.90778 8.9862 1.87716 9.15137 1.87951 9.31773C1.87724 9.4839 1.90807 9.64887 1.97027 9.80297C2.03247 9.95708 2.12479 10.0972 2.24177 10.2153C2.35875 10.3333 2.498 10.4269 2.65154 10.4905C2.80508 10.554 2.96982 10.5864 3.13601 10.5856H3.13809Z" fill="#F7A167"/>
<path d="M10.5122 1.44271C10.0947 1.36246 9.68249 1.25721 9.27769 1.12752C9.01159 1.04855 8.8693 1.13251 8.90701 1.40714C8.94706 1.64019 8.99906 1.87101 9.06282 2.09871C9.0799 2.18749 9.12201 2.26958 9.18415 2.33525C9.24629 2.40092 9.32591 2.44748 9.41362 2.46944C9.77577 2.5662 10.1386 2.66012 10.5043 2.74194C10.6751 2.77965 10.7178 2.83728 10.6089 2.981C10.5413 3.08771 10.4416 3.17029 10.3241 3.21693C10.2067 3.26358 10.0775 3.27189 9.95506 3.24069C9.50923 3.13575 9.07149 2.99902 8.64519 2.83157C8.3653 2.71369 8.12923 2.51134 7.96991 2.25278C7.81059 1.99423 7.73597 1.69239 7.75651 1.38938C7.78764 1.21396 7.83407 1.04159 7.89526 0.874261C8.01272 0.599357 8.21281 0.3678 8.46779 0.21175C8.72278 0.0556997 9.02001 -0.0171061 9.31825 0.00339042C9.6392 0.0207337 9.94793 0.132182 10.2059 0.323876C10.4639 0.51557 10.6598 0.778988 10.769 1.08127C10.875 1.37156 10.8103 1.49038 10.5122 1.44271Z" fill="#F7A167"/>
<path d="M12.436 6.76416C12.2584 6.71603 12.087 6.6475 11.9252 6.55995C11.7909 6.48994 11.6788 6.38403 11.6013 6.25399C11.5238 6.12396 11.4839 5.97492 11.4862 5.82355C11.4847 5.59477 11.5539 5.37113 11.6845 5.18325C11.8151 4.99537 12.0005 4.85247 12.2154 4.77411C12.2631 4.73711 12.3186 4.71159 12.3777 4.69955C12.4368 4.68751 12.4979 4.68925 12.5562 4.70467C12.6145 4.72009 12.6685 4.74876 12.7139 4.78844C12.7593 4.82812 12.795 4.87777 12.8181 4.93348C13.0062 5.23858 13.097 5.59369 13.0785 5.95164C13.0375 6.15316 12.9828 6.35164 12.9149 6.54573C12.9021 6.59449 12.8787 6.6398 12.8462 6.67837C12.8138 6.71695 12.7732 6.74781 12.7273 6.76872C12.6815 6.78964 12.6316 6.80008 12.5812 6.79929C12.5308 6.7985 12.4812 6.78651 12.436 6.76416Z" fill="#F7A167"/>
<path d="M9.20065 1.2544C9.23054 1.24515 9.32022 1.32554 9.3252 1.37321C9.33018 1.42088 9.27394 1.48777 9.21559 1.60089C9.13519 1.4963 9.05836 1.43937 9.06334 1.38743C9.06832 1.33549 9.14302 1.26863 9.20065 1.2544Z" fill="#F7A167"/>
<path d="M3.10381 8.74255C3.18194 8.73773 3.26025 8.74882 3.33397 8.77514C3.40769 8.80147 3.47528 8.84246 3.53269 8.89567C3.5901 8.94889 3.6361 9.01321 3.66792 9.08473C3.69974 9.15625 3.71676 9.23347 3.71786 9.31174C3.71755 9.46343 3.65921 9.60925 3.55484 9.71932C3.45046 9.82938 3.3079 9.89535 3.15645 9.90371C3.07968 9.90588 3.00321 9.89287 2.9315 9.8654C2.85978 9.83794 2.79427 9.79658 2.7386 9.74368C2.68292 9.69078 2.6382 9.6274 2.6071 9.55719C2.57601 9.48697 2.55909 9.41129 2.55734 9.33452C2.55361 9.2596 2.56486 9.18467 2.59043 9.11415C2.616 9.04363 2.65541 8.97893 2.70629 8.92381C2.75717 8.86869 2.81852 8.82427 2.88677 8.79314C2.95502 8.76202 3.02883 8.74483 3.10381 8.74255Z" fill="#F7A167"/>
</svg>
