<svg width="34" height="34" viewBox="0 0 34 34" fill="none" xmlns="http://www.w3.org/2000/svg">
<path d="M30.5178 10.6247H3.48353C3.12511 10.6247 2.83398 10.3335 2.83398 9.97513V7.73184C2.83398 7.37413 3.12511 7.08301 3.48353 7.08301H30.5185C30.8762 7.08301 31.1673 7.37413 31.1673 7.73255V9.97584C31.1673 10.3335 30.8762 10.6247 30.5178 10.6247Z" fill="#52BF8D"/>
<path d="M27.625 7.08301H6.375V9.20801H27.625V7.08301Z" fill="#107C42"/>
<path d="M31.2255 12.7497H2.77454C2.41613 12.7497 2.125 12.4585 2.125 12.1001V9.85684C2.125 9.49913 2.41613 9.20801 2.77454 9.20801H31.2262C31.5839 9.20801 31.875 9.49913 31.875 9.85755V12.1008C31.875 12.4585 31.5839 12.7497 31.2255 12.7497Z" fill="#59D19A"/>
<path d="M28.3327 9.20801H5.66602V11.333H28.3327V9.20801Z" fill="#21A366"/>
<path d="M31.9331 26.9163H2.06556C1.70714 26.9163 1.41602 26.6252 1.41602 26.2668V11.9825C1.41602 11.6241 1.70714 11.333 2.06556 11.333H31.9338C32.2916 11.333 32.5827 11.6241 32.5827 11.9825V26.2675C32.5827 26.6252 32.2916 26.9163 31.9331 26.9163Z" fill="#61E3A7"/>
<path d="M29.0423 11.333H4.95898V26.9163H29.0423V11.333Z" fill="#33C481"/>
<path d="M32.5827 26.2675V20.5994C31.0768 19.2472 29.0941 18.417 26.916 18.417C22.229 18.417 18.416 22.23 18.416 26.917H31.9331C32.2916 26.917 32.5827 26.6259 32.5827 26.2675Z" fill="url(#paint0_radial_41_7481)"/>
<path d="M29.041 14.7178C25.5263 14.7178 22.666 17.5773 22.666 21.0928C22.666 23.6888 24.2279 25.9229 26.4591 26.9167H31.6229C31.9487 26.7715 32.2604 26.6022 32.5543 26.4074C32.565 26.3606 32.5827 26.3174 32.5827 26.2679V15.7959C31.5691 15.1159 30.3507 14.7178 29.041 14.7178Z" fill="url(#paint1_radial_41_7481)"/>
<path d="M29.0423 26.0514C31.7807 26.0514 34.0007 23.8315 34.0007 21.0931C34.0007 18.3547 31.7807 16.1348 29.0423 16.1348C26.3039 16.1348 24.084 18.3547 24.084 21.0931C24.084 23.8315 26.3039 26.0514 29.0423 26.0514Z" fill="#FF8F6B"/>
<path d="M29.0417 24.6341C30.9977 24.6341 32.5833 23.0485 32.5833 21.0924C32.5833 19.1364 30.9977 17.5508 29.0417 17.5508C27.0857 17.5508 25.5 19.1364 25.5 21.0924C25.5 23.0485 27.0857 24.6341 29.0417 24.6341Z" fill="#ED6C47"/>
<path d="M26.9173 33.9997C30.8293 33.9997 34.0007 30.8284 34.0007 26.9163C34.0007 23.0043 30.8293 19.833 26.9173 19.833C23.0053 19.833 19.834 23.0043 19.834 26.9163C19.834 30.8284 23.0053 33.9997 26.9173 33.9997Z" fill="url(#paint2_linear_41_7481)"/>
<path d="M26.9167 32.5833C30.0463 32.5833 32.5833 30.0463 32.5833 26.9167C32.5833 23.7871 30.0463 21.25 26.9167 21.25C23.7871 21.25 21.25 23.7871 21.25 26.9167C21.25 30.0463 23.7871 32.5833 26.9167 32.5833Z" fill="#F5BE00"/>
<path d="M25.334 29.5269V28.4714C25.7172 28.7059 26.1252 28.8235 26.558 28.8235C26.8838 28.8235 27.1388 28.7463 27.3223 28.5911C27.5057 28.436 27.5978 28.2256 27.5978 27.9593C27.5978 27.404 27.2054 27.1263 26.4206 27.1263C26.1649 27.1263 25.856 27.1497 25.4934 27.1964V24.0635H28.5987V25.0729H26.5495V26.1949C26.7138 26.1793 26.8689 26.1715 27.0149 26.1715C27.5907 26.1715 28.0419 26.3231 28.3678 26.6248C28.6936 26.9273 28.8565 27.3346 28.8565 27.8453C28.8565 28.4105 28.6624 28.8731 28.2736 29.2315C27.8854 29.5906 27.3584 29.7691 26.6933 29.7691C26.1549 29.7698 25.7016 29.6891 25.334 29.5269Z" fill="#FEE119"/>
<path d="M13.4583 24.0837C16.1967 24.0837 18.4167 21.8637 18.4167 19.1253C18.4167 16.3869 16.1967 14.167 13.4583 14.167C10.7199 14.167 8.5 16.3869 8.5 19.1253C8.5 21.8637 10.7199 24.0837 13.4583 24.0837Z" fill="#61E3A7"/>
<defs>
<radialGradient id="paint0_radial_41_7481" cx="0" cy="0" r="1" gradientUnits="userSpaceOnUse" gradientTransform="translate(26.7198 26.2391) scale(7.71871 7.71871)">
<stop/>
<stop offset="1" stop-opacity="0"/>
</radialGradient>
<radialGradient id="paint1_radial_41_7481" cx="0" cy="0" r="1" gradientUnits="userSpaceOnUse" gradientTransform="translate(29.1161 21.2691) scale(6.10371 6.10371)">
<stop/>
<stop offset="1" stop-opacity="0"/>
</radialGradient>
<linearGradient id="paint2_linear_41_7481" x1="22.0553" y1="22.0543" x2="31.9153" y2="31.9143" gradientUnits="userSpaceOnUse">
<stop stop-color="#FEDE00"/>
<stop offset="1" stop-color="#FFD000"/>
</linearGradient>
</defs>
</svg>
