<svg width="23" height="23" viewBox="0 0 23 23" fill="none" xmlns="http://www.w3.org/2000/svg">
<g id="Iconly/Bulk/Message">
<g id="Message">
<path id="Path_34208" opacity="0.4" d="M21.0829 7.71725V15.2827C21.0874 16.5639 20.5817 17.7943 19.6773 18.7027C18.7729 19.611 17.544 20.1227 16.2615 20.125H6.76356C5.47886 20.1272 4.246 19.619 3.33678 18.7122C2.42755 17.8055 1.91662 16.5747 1.91663 15.2912V7.71725C1.91733 7.15363 2.01828 6.59462 2.21477 6.06629C2.90713 4.15175 4.72593 2.87574 6.76356 2.875H16.236C18.2984 2.87385 20.1349 4.17898 20.8103 6.12586C20.9977 6.63524 21.0901 7.17461 21.0829 7.71725Z" fill="#9796A1"/>
<path id="Path_34209" d="M20.8104 6.13437L20.7167 6.21096C18.9534 7.58109 13.2461 12.168 13.2461 12.168C12.2537 12.9743 10.8312 12.9743 9.83876 12.168C9.83876 12.168 4.16554 7.5896 2.40225 6.21947L2.21484 6.0748C2.90436 4.1569 4.72381 2.87703 6.76364 2.875H16.236C18.3007 2.8751 20.1379 4.18413 20.8104 6.13437Z" fill="#9796A1"/>
</g>
</g>
</svg>
