<svg width="34" height="34" viewBox="0 0 34 34" fill="none" xmlns="http://www.w3.org/2000/svg">
<path d="M31.875 24.7917C31.875 26.3557 30.6064 27.625 29.0417 27.625H4.95833C3.39362 27.625 2.125 26.3557 2.125 24.7917V9.20833C2.125 7.64292 3.39362 6.375 4.95833 6.375H29.0417C30.6064 6.375 31.875 7.64292 31.875 9.20833V24.7917Z" fill="#515151"/>
<path opacity="0.75" d="M2.125 9.91699H31.875V14.167H2.125V9.91699Z" fill="white"/>
<path d="M21.25 18.7246H26.2083V23.775H21.25V18.7246Z" fill="#FF6F00"/>
<path d="M26.2077 17.708C25.2415 17.708 24.3674 18.0969 23.7285 18.7245C24.383 19.3669 24.791 20.2601 24.791 21.2497C24.791 22.2392 24.383 23.1324 23.7285 23.7749C24.3674 24.4025 25.2415 24.7913 26.2077 24.7913C28.1634 24.7913 29.7493 23.2054 29.7493 21.2497C29.7493 19.294 28.1634 17.708 26.2077 17.708Z" fill="#FFB300"/>
<path d="M22.6673 21.2497C22.6673 20.2601 23.0753 19.3669 23.7298 18.7245C23.0909 18.0969 22.2168 17.708 21.2507 17.708C19.2949 17.708 17.709 19.294 17.709 21.2497C17.709 23.2054 19.2949 24.7913 21.2507 24.7913C22.2168 24.7913 23.0909 24.4025 23.7298 23.7749C23.0753 23.1324 22.6673 22.2392 22.6673 21.2497Z" fill="#D50000"/>
</svg>
