<svg width="34" height="24" viewBox="0 0 34 24" fill="none" xmlns="http://www.w3.org/2000/svg">
<g clip-path="url(#clip0_41_7473)">
<path d="M34 0H0V24H34V0Z" fill="white"/>
<path d="M33.3471 7.00977H0.693359V17.0226H33.3471V7.00977Z" fill="#0061AF"/>
<path fill-rule="evenodd" clip-rule="evenodd" d="M13.5417 1.29519V1.97512H14.3384V1.29519H13.5417ZM5.31259 1.29519V1.98322H6.10921V1.29519H5.31259ZM2.65234 0.558594C1.54777 0.558594 0.652344 1.45402 0.652344 2.55859V6.15185H33.314V2.55859C33.314 1.45402 32.4186 0.558594 31.314 0.558594H2.65234ZM27.4429 4.78389V5.43954H28.2395V4.78389H27.4429ZM6.7306 1.28709V1.96702H7.52723V1.28709H6.7306ZM26.0328 4.78389V5.43954H26.8295V4.78389H26.0328ZM19.4686 2.18558V5.33431H25.3318V3.41593L25.9771 4.34678H30.7966L31.5933 3.30259L30.8684 2.24223H28.4068L28.1837 1.9913H30.7807L30.3267 1.34375H26.2878L27.3234 2.96264H29.8328L30.1594 3.37547H26.9729L26.1762 2.24223H24.2882V4.59771H20.7751V3.19739H23.627V2.24223L19.4686 2.18558ZM16.0511 2.93026H17.9232V3.79637H16.0511V2.93026ZM3.44851 1.31137L2.33321 3.18929L3.08204 4.33871H14.4499V2.38794H13.4621V3.19739H12.9761V2.38794H11.9485V3.19739H3.66356L4.69124 1.28709L3.44851 1.31137Z" fill="#0061AF"/>
<path fill-rule="evenodd" clip-rule="evenodd" d="M0.693359 17.8643V21.4575C0.693359 22.5621 1.58879 23.4575 2.69336 23.4575H31.355C32.4596 23.4575 33.355 22.5621 33.355 21.4575V17.8643H0.693359ZM28.3522 18.6737V19.1513H27.4998V20.1064H28.3522V21.9277C28.3522 21.9277 28.5036 23.0042 29.8817 22.8504C30.423 22.7983 30.9572 22.6871 31.475 22.5186V21.871H30.5908C30.4905 21.8428 30.4034 21.7793 30.345 21.6918C30.2866 21.6043 30.2607 21.4985 30.2721 21.3934V20.0821H31.475V19.127H30.2721V18.1719L28.3522 18.6737ZM16.4905 20.1955C16.6399 20.0093 16.8282 19.8592 17.0417 19.7562C17.2553 19.6531 17.4888 19.5996 17.7252 19.5996C17.9617 19.5996 18.1951 19.6531 18.4087 19.7562C18.6223 19.8592 18.8106 20.0093 18.96 20.1955H16.4905ZM21.1587 21.0049C21.1587 21.0049 21.1029 18.7951 17.8686 18.7951C17.8686 18.7951 14.9371 18.617 14.6104 20.8835C14.6104 20.8835 14.6104 23.0933 17.9005 22.9152C17.9005 22.9152 20.0912 22.9638 20.9277 21.5391H18.96C18.96 21.5391 18.8405 22.1057 17.781 22.1057C17.4541 22.1295 17.1299 22.0306 16.87 21.8277C16.6101 21.6248 16.4325 21.332 16.371 21.0049H21.1587ZM2.39018 19.1674V22.5995H4.23835V20.6892C4.39991 20.501 4.59781 20.3485 4.81983 20.2413C5.04184 20.134 5.28321 20.0744 5.52889 20.0659C5.52889 20.0659 6.53264 20.155 6.53264 20.8106V22.5995H8.38082V20.6002C8.38082 20.6002 8.38078 19.1998 6.30159 18.9813C5.54672 18.9608 4.81136 19.2262 4.23835 19.726V19.127L2.39018 19.1674Z" fill="#0061AF"/>
<path fill-rule="evenodd" clip-rule="evenodd" d="M5.77539 7.3252H12.5547V11.2024L17.7566 7.38995H26.8541L21.2777 11.8014L27.5631 16.3991H17.9L12.5308 11.5667V16.3343H5.77539V7.3252Z" fill="#FFD200"/>
</g>
<defs>
<clipPath id="clip0_41_7473">
<rect width="34" height="24" fill="white"/>
</clipPath>
</defs>
</svg>
