<svg width="24" height="24" viewBox="0 0 24 24" fill="none" xmlns="http://www.w3.org/2000/svg">
<path d="M11.9999 2C10.352 2 8.99994 3.35207 8.99994 5H5.87299C5.82848 4.99237 5.78337 4.98877 5.73822 4.98926C5.70187 4.99021 5.66565 4.9938 5.62982 5H3.74994C3.65056 4.99859 3.55188 5.01696 3.45966 5.05402C3.36743 5.09108 3.28349 5.1461 3.21271 5.21588C3.14194 5.28566 3.08573 5.36882 3.04737 5.46051C3.00901 5.5522 2.98926 5.65061 2.98926 5.75C2.98926 5.84939 3.00901 5.9478 3.04737 6.03949C3.08573 6.13118 3.14194 6.21434 3.21271 6.28412C3.28349 6.3539 3.36743 6.40892 3.45966 6.44598C3.55188 6.48304 3.65056 6.50141 3.74994 6.5H4.99994V19.25C4.99994 20.7599 6.24005 22 7.74994 22H16.2499C17.7598 22 18.9999 20.7599 18.9999 19.25V6.5H20.2499C20.3493 6.50141 20.448 6.48304 20.5402 6.44598C20.6324 6.40892 20.7164 6.3539 20.7872 6.28412C20.8579 6.21434 20.9141 6.13118 20.9525 6.03949C20.9909 5.9478 21.0106 5.84939 21.0106 5.75C21.0106 5.65061 20.9909 5.5522 20.9525 5.46051C20.9141 5.36882 20.8579 5.28566 20.7872 5.21588C20.7164 5.1461 20.6324 5.09108 20.5402 5.05402C20.448 5.01696 20.3493 4.99859 20.2499 5H18.373C18.2925 4.98677 18.2103 4.98677 18.1298 5H14.9999C14.9999 3.35207 13.6479 2 11.9999 2ZM11.9999 3.5C12.837 3.5 13.4999 4.16293 13.4999 5H10.4999C10.4999 4.16293 11.1629 3.5 11.9999 3.5ZM6.49994 6.5H17.4999V19.25C17.4999 19.9491 16.9491 20.5 16.2499 20.5H7.74994C7.05083 20.5 6.49994 19.9491 6.49994 19.25V6.5ZM10.2382 8.98926C10.0395 8.99236 9.85009 9.07423 9.71167 9.21686C9.57324 9.3595 9.49709 9.55125 9.49994 9.75V17.25C9.49853 17.3494 9.51689 17.4481 9.55396 17.5403C9.59102 17.6325 9.64604 17.7164 9.71582 17.7872C9.7856 17.858 9.86876 17.9142 9.96045 17.9526C10.0521 17.9909 10.1505 18.0107 10.2499 18.0107C10.3493 18.0107 10.4477 17.9909 10.5394 17.9526C10.6311 17.9142 10.7143 17.858 10.7841 17.7872C10.8538 17.7164 10.9089 17.6325 10.9459 17.5403C10.983 17.4481 11.0013 17.3494 10.9999 17.25V9.75C11.0014 9.64962 10.9827 9.54997 10.9449 9.45695C10.9071 9.36394 10.851 9.27946 10.78 9.20852C10.7089 9.13757 10.6244 9.08161 10.5313 9.04395C10.4383 9.00629 10.3386 8.98769 10.2382 8.98926V8.98926ZM13.7382 8.98926C13.5395 8.99236 13.3501 9.07423 13.2117 9.21686C13.0732 9.3595 12.9971 9.55125 12.9999 9.75V17.25C12.9985 17.3494 13.0169 17.4481 13.054 17.5403C13.091 17.6325 13.146 17.7164 13.2158 17.7872C13.2856 17.858 13.3688 17.9142 13.4604 17.9526C13.5521 17.9909 13.6505 18.0107 13.7499 18.0107C13.8493 18.0107 13.9477 17.9909 14.0394 17.9526C14.1311 17.9142 14.2143 17.858 14.2841 17.7872C14.3538 17.7164 14.4089 17.6325 14.4459 17.5403C14.483 17.4481 14.5013 17.3494 14.4999 17.25V9.75C14.5014 9.64962 14.4827 9.54997 14.4449 9.45695C14.4071 9.36394 14.351 9.27946 14.28 9.20852C14.2089 9.13757 14.1244 9.08161 14.0313 9.04395C13.9383 9.00629 13.8386 8.98769 13.7382 8.98926V8.98926Z" fill="#F7A167" fill-opacity="0.403922"/>
</svg>
