<?xml version="1.0" encoding="UTF-8"?>
<svg width="36px" height="36px" viewBox="0 0 36 36" version="1.1" xmlns="http://www.w3.org/2000/svg" xmlns:xlink="http://www.w3.org/1999/xlink">
    <title>SVG/ic_contact_us_facebook</title>
    <g id="Standard-Templates" stroke="none" stroke-width="1" fill="none" fill-rule="evenodd">
        <g id="standardWireframes/Common/COMM1-Contact-Us" transform="translate(-102.000000, -574.000000)" fill-rule="nonzero">
            <g id="ic_contact_us_facebook" transform="translate(102.000000, 574.000000)">
                <path d="M18,0 C8.0588745,0 0,8.0588745 0,18 C0,27.9411255 8.0588745,36 18,36 C27.9411255,36 36,27.9411255 36,18 C36,8.0588745 27.9411255,0 18,0 Z" id="Path" fill="#039BE5"></path>
                <path d="M20.4366316,22.7709474 L25.0948421,22.7709474 L25.8262105,18.0388421 L20.4356842,18.0388421 L20.4356842,15.4525263 C20.4356842,13.4867368 21.078,11.7435789 22.9168421,11.7435789 L25.8716842,11.7435789 L25.8716842,7.614 C25.3525263,7.54389474 24.2545263,7.39042105 22.1797895,7.39042105 C17.8474737,7.39042105 15.3075789,9.67831579 15.3075789,14.8907368 L15.3075789,18.0388421 L10.854,18.0388421 L10.854,22.7709474 L15.3075789,22.7709474 L15.3075789,35.7773684 C16.1895789,35.91 17.0829474,36 18,36 C18.8289474,36 19.638,35.9242105 20.4366316,35.8162105 L20.4366316,22.7709474 Z" id="Path" fill="#FFFFFF"></path>
            </g>
        </g>
    </g>
</svg>