<svg width="23" height="23" viewBox="0 0 23 23" fill="none" xmlns="http://www.w3.org/2000/svg">
<path d="M16.0458 2.08362C15.1374 2.08379 14.2455 2.34855 13.4616 2.8507C12.6776 3.35285 12.0299 4.0743 11.585 4.94097C11.14 4.0741 10.4921 3.35251 9.70789 2.85035C8.92371 2.34818 8.0315 2.08354 7.12293 2.08362C5.73143 2.16586 4.42246 2.83204 3.46833 3.94356C2.5142 5.05508 1.98836 6.52638 2.0002 8.05139C2.0002 15.8281 11.585 21.2536 11.585 21.2536C11.585 21.2536 21.1698 15.8309 21.1698 8.05139C21.1816 6.52615 20.6556 5.05466 19.7012 3.9431C18.7468 2.83154 17.4375 2.16552 16.0458 2.08362V2.08362Z" fill="#9796A1"/>
</svg>
