<svg width="21" height="20" viewBox="0 0 21 20" fill="none" xmlns="http://www.w3.org/2000/svg">
<path d="M7.52905 16.1233L1.00005 16.1233" stroke="#FE724C" stroke-width="2" stroke-linecap="round"/>
<path d="M19.281 16.1233L7.52901 16.1233" stroke="#FE724C" stroke-opacity="0.25" stroke-width="2" stroke-linecap="round"/>
<path d="M10.3469 16C10.3469 14.3431 9.00378 13 7.34692 13C5.69007 13 4.34692 14.3431 4.34692 16C4.34692 17.6569 5.69007 19 7.34692 19C9.00378 19 10.3469 17.6569 10.3469 16Z" fill="#F7A167" stroke="#FE724C" stroke-width="1.5"/>
<path d="M12.752 3.87671L19.281 3.87671" stroke="#FE724C" stroke-width="2" stroke-linecap="round"/>
<path d="M1 3.87671L12.752 3.87671" stroke="#FE724C" stroke-opacity="0.25" stroke-width="2" stroke-linecap="round"/>
<path d="M9.93408 4C9.93408 5.65685 11.2772 7 12.9341 7C14.5909 7 15.9341 5.65685 15.9341 4C15.9341 2.34315 14.5909 1 12.9341 1C11.2772 1 9.93408 2.34315 9.93408 4Z" fill="#F7A167" stroke="#FE724C" stroke-width="1.5"/>
</svg>
