<?xml version="1.0" encoding="UTF-8"?>
<svg width="36.0000085px" height="36.0000066px" viewBox="0 0 36.0000085 36.0000066" version="1.1" xmlns="http://www.w3.org/2000/svg" xmlns:xlink="http://www.w3.org/1999/xlink">
    <title>SVG/ic_contact_us_instagram</title>
    <defs>
        <radialGradient cx="37.1748248%" cy="100.072175%" fx="37.1748248%" fy="100.072175%" r="124.653638%" id="radialGradient-1">
            <stop stop-color="#FFDD55" offset="0%"></stop>
            <stop stop-color="#FF543F" offset="32.8%"></stop>
            <stop stop-color="#FC5245" offset="34.8%"></stop>
            <stop stop-color="#E64771" offset="50.4%"></stop>
            <stop stop-color="#D53E91" offset="64.3%"></stop>
            <stop stop-color="#CC39A4" offset="76.1%"></stop>
            <stop stop-color="#C837AB" offset="84.1%"></stop>
        </radialGradient>
        <radialGradient cx="16.0915127%" cy="-1.24849269%" fx="16.0915127%" fy="-1.24849269%" r="82.7701936%" id="radialGradient-2">
            <stop stop-color="#4168C9" offset="0%"></stop>
            <stop stop-color="#4168C9" stop-opacity="0" offset="99.9%"></stop>
        </radialGradient>
    </defs>
    <g id="Standard-Templates" stroke="none" stroke-width="1" fill="none" fill-rule="evenodd">
        <g id="standardWireframes/Common/COMM1-Contact-Us" transform="translate(-169.999997, -573.999997)" fill-rule="nonzero">
            <g id="Group" transform="translate(102.000000, 574.000000)">
                <g id="ic_contact_us_instagram" transform="translate(68.000000, 0.000000)">
                    <path d="M28.0122139,35.9810048 L8.02276761,36 C3.62508942,36.0039927 0.0239906676,32.4098904 0.0189933061,28.0122125 L0,8.02276719 C-0.00399455721,3.62508923 3.59010789,0.0239906664 7.98778608,0.0189933051 L27.9772324,0 C32.3749106,-0.003994557 35.9760093,3.5901077 35.9810067,7.98778566 L36,27.9772309 C36.004994,32.3759084 32.4098921,35.9770069 28.0122139,35.9810048 Z" id="Path" fill="url(#radialGradient-1)"></path>
                    <path d="M28.0122139,35.9810048 L8.02276761,36 C3.62508942,36.0039927 0.0239906676,32.4098904 0.0189933061,28.0122125 L0,8.02276719 C-0.00399455721,3.62508923 3.59010789,0.0239906664 7.98778608,0.0189933051 L27.9772324,0 C32.3749106,-0.003994557 35.9760093,3.5901077 35.9810067,7.98778566 L36,27.9772309 C36.004994,32.3759084 32.4098921,35.9770069 28.0122139,35.9810048 Z" id="Path" fill="url(#radialGradient-2)"></path>
                    <path d="M18,24.9999994 C14.141,24.9999994 11,21.8599989 11,17.9999994 C11,14.1399993 14.141,10.9999994 18,10.9999994 C21.859,10.9999994 25,14.1399993 25,17.9999994 C25,21.8599989 21.859,24.9999994 18,24.9999994 Z M18,12.9999993 C15.243,12.9999993 13,15.2429992 13,17.9999993 C13,20.7569989 15.243,22.9999993 18,22.9999993 C20.757,22.9999993 23,20.7569989 23,17.9999993 C23,15.2429992 20.757,12.9999993 18,12.9999993 Z" id="Shape" fill="#FFFFFF"></path>
                    <ellipse id="Oval" fill="#FFFFFF" cx="25.4965421" cy="10.5044568" rx="1.49920847" ry="1.4992084"></ellipse>
                    <path d="M24,30.9999997 L12,30.9999997 C8.141,30.9999997 5,27.8599986 5,23.9999997 L5,11.9999997 C5,8.13999958 8.141,4.99999974 12,4.99999974 L24,4.99999974 C27.859,4.99999974 31,8.13999958 31,11.9999997 L31,23.9999997 C31,27.8599986 27.859,30.9999997 24,30.9999997 Z M12,6.99999964 C9.243,6.99999964 7,9.24299952 7,11.9999996 L7,23.9999996 C7,26.7569986 9.243,28.9999996 12,28.9999996 L24,28.9999996 C26.757,28.9999996 29,26.7569986 29,23.9999996 L29,11.9999996 C29,9.24299952 26.757,6.99999964 24,6.99999964 L12,6.99999964 Z" id="Shape" fill="#FFFFFF"></path>
                </g>
            </g>
        </g>
    </g>
</svg>