<svg width="120" height="120" viewBox="0 0 120 120" fill="none" xmlns="http://www.w3.org/2000/svg">
<path d="M92.5 12.5C92.5 13.88 91.38 15 90 15C88.62 15 87.5 13.88 87.5 12.5H82.5C82.5 13.88 81.38 15 80 15C78.62 15 77.5 13.88 77.5 12.5H72.5C72.5 13.88 71.38 15 70 15C68.62 15 67.5 13.88 67.5 12.5H62.5C62.5 13.88 61.38 15 60 15C58.62 15 57.5 13.88 57.5 12.5H52.5C52.5 13.88 51.38 15 50 15C48.62 15 47.5 13.88 47.5 12.5H42.5C42.5 13.88 41.38 15 40 15C38.62 15 37.5 13.88 37.5 12.5H32.5C32.5 13.88 31.38 15 30 15C28.62 15 27.5 13.88 27.5 12.5H25C23.62 12.5 22.5 13.62 22.5 15V102.5C22.5 105.262 24.7375 107.5 27.5 107.5H92.5C95.2625 107.5 97.5 105.262 97.5 102.5V15C97.5 13.62 96.38 12.5 95 12.5H92.5Z" fill="#FEC89A"/>
<path d="M86.25 32.5H33.75C33.06 32.5 32.5 31.94 32.5 31.25V26.25C32.5 25.56 33.06 25 33.75 25H86.25C86.94 25 87.5 25.56 87.5 26.25V31.25C87.5 31.94 86.94 32.5 86.25 32.5Z" fill="#14213D"/>
<path d="M86.25 50H81.25C80.56 50 80 49.44 80 48.75V46.25C80 45.56 80.56 45 81.25 45H86.25C86.94 45 87.5 45.56 87.5 46.25V48.75C87.5 49.44 86.94 50 86.25 50Z" fill="#14213D"/>
<path d="M66.25 50H33.75C33.06 50 32.5 49.44 32.5 48.75V46.25C32.5 45.56 33.06 45 33.75 45H66.25C66.94 45 67.5 45.56 67.5 46.25V48.75C67.5 49.44 66.94 50 66.25 50Z" fill="#14213D"/>
<path d="M86.25 60H81.25C80.56 60 80 59.44 80 58.75V56.25C80 55.56 80.56 55 81.25 55H86.25C86.94 55 87.5 55.56 87.5 56.25V58.75C87.5 59.44 86.94 60 86.25 60Z" fill="#14213D"/>
<path d="M58.75 60H33.75C33.06 60 32.5 59.44 32.5 58.75V56.25C32.5 55.56 33.06 55 33.75 55H58.75C59.44 55 60 55.56 60 56.25V58.75C60 59.44 59.44 60 58.75 60Z" fill="#14213D"/>
<path d="M86.25 70H81.25C80.56 70 80 69.44 80 68.75V66.25C80 65.56 80.56 65 81.25 65H86.25C86.94 65 87.5 65.56 87.5 66.25V68.75C87.5 69.44 86.94 70 86.25 70Z" fill="#14213D"/>
<path d="M66.25 70H33.75C33.06 70 32.5 69.44 32.5 68.75V66.25C32.5 65.56 33.06 65 33.75 65H66.25C66.94 65 67.5 65.56 67.5 66.25V68.75C67.5 69.44 66.94 70 66.25 70Z" fill="#14213D"/>
<path d="M86.25 80H81.25C80.56 80 80 79.44 80 78.75V76.25C80 75.56 80.56 75 81.25 75H86.25C86.94 75 87.5 75.56 87.5 76.25V78.75C87.5 79.44 86.94 80 86.25 80Z" fill="#14213D"/>
<path d="M58.75 80H33.75C33.06 80 32.5 79.44 32.5 78.75V76.25C32.5 75.56 33.06 75 33.75 75H58.75C59.44 75 60 75.56 60 76.25V78.75C60 79.44 59.44 80 58.75 80Z" fill="#14213D"/>
<path d="M86.25 95H76.25C75.56 95 75 94.44 75 93.75V91.25C75 90.56 75.56 90 76.25 90H86.25C86.94 90 87.5 90.56 87.5 91.25V93.75C87.5 94.44 86.94 95 86.25 95Z" fill="#14213D"/>
<path d="M66.25 95H43.75C43.06 95 42.5 94.44 42.5 93.75V91.25C42.5 90.56 43.06 90 43.75 90H66.25C66.94 90 67.5 90.56 67.5 91.25V93.75C67.5 94.44 66.94 95 66.25 95Z" fill="#14213D"/>
</svg>
