<svg width="23" height="23" viewBox="0 0 23 23" fill="none" xmlns="http://www.w3.org/2000/svg">
<path opacity="0.4" d="M15.5164 1.91675H7.48458C4.57125 1.91675 2.875 3.62258 2.875 6.5455V16.4451C2.875 19.4159 4.57125 21.0834 7.48458 21.0834H15.5164C18.4767 21.0834 20.125 19.4159 20.125 16.4451V6.5455C20.125 3.62258 18.4767 1.91675 15.5164 1.91675Z" fill="#9796A1"/>
<path fill-rule="evenodd" clip-rule="evenodd" d="M7.74302 6.3728V6.38239C7.32998 6.38239 6.99552 6.7178 6.99552 7.12989C6.99552 7.54197 7.32998 7.87739 7.74302 7.87739H10.6075C11.0205 7.87739 11.3559 7.54197 11.3559 7.11934C11.3559 6.70822 11.0205 6.3728 10.6075 6.3728H7.74302ZM15.2564 12.2091H7.74302C7.32998 12.2091 6.99552 11.8737 6.99552 11.4616C6.99552 11.0495 7.32998 10.7131 7.74302 10.7131H15.2564C15.6684 10.7131 16.0039 11.0495 16.0039 11.4616C16.0039 11.8737 15.6684 12.2091 15.2564 12.2091ZM15.2565 16.5886H7.74317C7.45567 16.6269 7.17776 16.4832 7.02442 16.2436C6.87109 15.9944 6.87109 15.6782 7.02442 15.4386C7.17776 15.1894 7.45567 15.0552 7.74317 15.084H15.2565C15.6389 15.1223 15.9273 15.4482 15.9273 15.8411C15.9273 16.2235 15.6389 16.5502 15.2565 16.5886Z" fill="#9796A1"/>
</svg>
