<svg width="23" height="23" viewBox="0 0 23 23" fill="none" xmlns="http://www.w3.org/2000/svg">
<g id="Iconly/Bulk/Wallet">
<g id="Wallet">
<path id="Fill 1" fill-rule="evenodd" clip-rule="evenodd" d="M21.0799 8.02616H17.0217C15.1331 8.02948 13.6032 9.52118 13.5998 11.3625C13.5972 13.2081 15.1288 14.7064 17.0217 14.7089H21.0833V15.0021C21.0833 18.2213 19.1317 20.125 15.8291 20.125H7.1717C3.86822 20.125 1.91663 18.2213 1.91663 15.0021V7.99045C1.91663 4.77118 3.86822 2.875 7.1717 2.875H15.8257C19.1283 2.875 21.0799 4.77118 21.0799 7.99045V8.02616ZM6.45864 8.01878H11.8636H11.867H11.8739C12.2785 8.01712 12.6056 7.69569 12.6039 7.30034C12.6022 6.90582 12.2717 6.58689 11.867 6.58855H6.45864C6.05657 6.59021 5.73031 6.90832 5.7286 7.30117C5.7269 7.69569 6.05401 8.01712 6.45864 8.01878Z" fill="#9796A1"/>
<path id="Fill 4" opacity="0.4" d="M15.3693 11.7841C15.5698 12.6957 16.369 13.337 17.2814 13.3203H20.3959C20.7755 13.3203 21.0835 13.0059 21.0835 12.6173V10.1912C21.0827 9.80339 20.7755 9.48814 20.3959 9.4873H17.2081C16.1702 9.49064 15.3319 10.3522 15.3335 11.4138C15.3335 11.5381 15.3457 11.6623 15.3693 11.7841Z" fill="#9796A1"/>
<path id="Oval" d="M17.2501 12.3625C17.7794 12.3625 18.2084 11.9334 18.2084 11.4041C18.2084 10.8749 17.7794 10.4458 17.2501 10.4458C16.7208 10.4458 16.2917 10.8749 16.2917 11.4041C16.2917 11.9334 16.7208 12.3625 17.2501 12.3625Z" fill="#9796A1"/>
</g>
</g>
</svg>
