<svg width="23" height="23" viewBox="0 0 23 23" fill="none" xmlns="http://www.w3.org/2000/svg">
<rect width="23" height="23" fill="#F5F5F5"/>
<g id="8" clip-path="url(#clip0_2_52)">
<rect width="375" height="812" transform="translate(-22 -287)" fill="white"/>
<g id="Group 18139">
<g id="Group 18131">
<g id="Iconly/Bulk/Profile">
<g id="Profile">
<path id="Ellipse_744" opacity="0.4" d="M11.5001 12.5649C14.4773 12.5649 16.8908 10.1812 16.8908 7.24082C16.8908 4.30042 14.4773 1.91675 11.5001 1.91675C8.52287 1.91675 6.10938 4.30042 6.10938 7.24082C6.10938 10.1812 8.52287 12.5649 11.5001 12.5649Z" fill="#9796A1"/>
<path id="Path_34198" d="M20.1156 17.8975C20.1205 17.8218 20.1205 17.7458 20.1156 17.67C20.0943 17.3899 20.0148 17.1164 19.8817 16.8648C19.3577 15.8408 17.8885 15.377 16.6626 15.1144C15.788 14.9324 14.8994 14.8153 14.005 14.7644L13.0692 14.6943H12.6481H12.1241H10.8702H10.3461H9.92504L8.98926 14.7644C8.09491 14.8153 7.20627 14.9324 6.33166 15.1144C5.10579 15.342 3.63663 15.8146 3.11259 16.8648C2.97944 17.1164 2.89998 17.3899 2.87865 17.67C2.87378 17.7458 2.87378 17.8218 2.87865 17.8975C2.87416 17.9733 2.87416 18.0493 2.87865 18.1251C2.9041 18.4027 2.98672 18.6732 3.12195 18.9215C3.64598 19.9455 5.11515 20.4093 6.34102 20.6719C7.21726 20.8454 8.10522 20.9624 8.99862 21.022L9.9344 21.0832H10.159H10.3555H12.6575H12.854H13.0786L14.0144 21.022C14.9078 20.9624 15.7957 20.8454 16.672 20.6719C17.8979 20.4356 19.367 19.9717 19.8911 18.9215C20.02 18.6653 20.0992 18.3897 20.125 18.1076C20.1262 18.0375 20.1231 17.9673 20.1156 17.8975Z" fill="#9796A1"/>
</g>
</g>
</g>
</g>
</g>
<defs>
<clipPath id="clip0_2_52">
<rect width="375" height="812" fill="white" transform="translate(-22 -287)"/>
</clipPath>
</defs>
</svg>
