<svg width="23" height="23" viewBox="0 0 23 23" fill="none" xmlns="http://www.w3.org/2000/svg">
<g id="Iconly/Bulk/Setting">
<g id="Setting">
<path id="Path_34199" opacity="0.4" d="M19.6251 13.1441C18.7182 12.6191 18.4043 11.4868 18.9167 10.5886C19.0849 10.2985 19.3294 10.0574 19.6251 9.89005C20.0745 9.63867 20.4028 9.22341 20.5373 8.73595C20.6719 8.24848 20.6017 7.7289 20.3423 7.29191L19.7038 6.17599C19.4457 5.73826 19.0194 5.41858 18.5189 5.28753C18.0184 5.15647 17.485 5.22482 17.0363 5.47747C16.5863 5.73053 16.0515 5.7991 15.5496 5.6681C15.0477 5.5371 14.6198 5.21727 14.36 4.77896C14.19 4.48812 14.0996 4.15957 14.0976 3.82489C14.0999 3.3196 13.8955 2.83424 13.5295 2.47614C13.1635 2.11805 12.666 1.91674 12.1472 1.91675H10.8616C9.783 1.91674 8.90728 2.76586 8.90246 3.81637C8.90613 4.49769 8.53488 5.12875 7.92953 5.47019C7.32417 5.81163 6.57744 5.81116 5.97254 5.46896C5.51973 5.20602 4.97693 5.1328 4.46781 5.266C3.95868 5.3992 3.5266 5.72746 3.27001 6.17599L2.65778 7.24932C2.12268 8.16011 2.44308 9.32081 3.37496 9.84746C4.30891 10.3773 4.6259 11.5437 4.08339 12.4541C3.91746 12.7436 3.67219 12.9825 3.37496 13.1441C2.92554 13.3955 2.59732 13.8107 2.46276 14.2982C2.32821 14.7857 2.39838 15.3053 2.65778 15.7422L3.27001 16.8326C3.81397 17.7423 5.01151 18.051 5.9463 17.5226C6.88207 17.0064 8.07001 17.3175 8.61384 18.2211C8.78693 18.5107 8.8775 18.8401 8.87622 19.1752C8.8762 19.6842 9.08501 20.1722 9.45621 20.5305C9.8274 20.8889 10.3302 21.0879 10.8528 21.0833H12.1385C13.2205 21.0833 14.0976 20.229 14.0976 19.1752C14.0906 18.667 14.293 18.1772 14.6595 17.8154C15.026 17.4536 15.5261 17.25 16.048 17.25C16.3921 17.2479 16.7305 17.3362 17.0275 17.5056C17.9627 18.0268 19.1544 17.7147 19.6951 16.8071L20.3423 15.7167C20.8648 14.8123 20.5455 13.6669 19.6251 13.1441Z" fill="#9796A1"/>
<path id="Ellipse_745" d="M11.4998 13.8962C12.823 13.8962 13.8957 12.8235 13.8957 11.5003C13.8957 10.1771 12.823 9.10449 11.4998 9.10449C10.1767 9.10449 9.104 10.1771 9.104 11.5003C9.104 12.8235 10.1767 13.8962 11.4998 13.8962Z" fill="#9796A1"/>
</g>
</g>
</svg>
