<?xml version="1.0" encoding="UTF-8"?>
<svg width="36.003px" height="29px" viewBox="0 0 36.003 29" version="1.1" xmlns="http://www.w3.org/2000/svg" xmlns:xlink="http://www.w3.org/1999/xlink">
    <title>SVG/ic_contact_us_twitter</title>
    <g id="Standard-Templates" stroke="none" stroke-width="1" fill="none" fill-rule="evenodd">
        <g id="standardWireframes/Common/COMM1-Contact-Us" transform="translate(-238.000000, -578.000000)" fill="#03A9F4" fill-rule="nonzero">
            <g id="Group" transform="translate(102.000000, 574.000000)">
                <g id="ic_contact_us_twitter" transform="translate(136.000000, 4.000000)">
                    <path d="M36.003,3.429 C34.68,4.015 33.257,4.406 31.756,4.591 C33.282,3.685 34.456,2.24 35.007,0.533 C33.579,1.37 31.997,1.985 30.314,2.309 C28.97,0.884 27.053,0 24.929,0 C20.849,0 17.542,3.278 17.542,7.32 C17.542,7.892 17.609,8.449 17.735,8.99 C11.597,8.682 6.153,5.764 2.511,1.336 C1.871,2.418 1.511,3.685 1.511,5.022 C1.511,7.563 2.812,9.8 4.796,11.118 C3.585,11.081 2.445,10.744 1.447,10.204 C1.447,10.226 1.447,10.259 1.447,10.29 C1.447,13.841 3.994,16.798 7.37,17.471 C6.753,17.64 6.101,17.734 5.429,17.734 C4.952,17.734 4.487,17.68 4.037,17.599 C4.977,20.501 7.704,22.622 10.935,22.685 C8.407,24.645 5.223,25.819 1.761,25.819 C1.163,25.819 0.578,25.785 0,25.715 C3.271,27.786 7.155,29 11.324,29 C24.909,29 32.341,17.844 32.341,8.166 C32.341,7.849 32.331,7.533 32.316,7.221 C33.766,6.197 35.016,4.905 36.003,3.429" id="Path"></path>
                </g>
            </g>
        </g>
    </g>
</svg>